Coordinates
version=1
nRows=8
nColumns=63
inDegrees=yes

Units are S.I. units (second, meters, Newtons, ...)
If the header above contains a line with 'inDegrees', this indicates whether rotational values are in degrees (yes) or radians (no).

endheader
time	pelvis_tilt	pelvis_list	pelvis_rotation	pelvis_tx	pelvis_ty	pelvis_tz	hip_flexion_r	hip_adduction_r	hip_rotation_r	knee_angle_r	knee_angle_r_beta	ankle_angle_r	subtalar_angle_r	mtp_angle_r	hip_flexion_l	hip_adduction_l	hip_rotation_l	knee_angle_l	knee_angle_l_beta	ankle_angle_l	subtalar_angle_l	mtp_angle_l	L5_S1_Flex_Ext	L5_S1_Lat_Bending	L5_S1_axial_rotation	L4_L5_Flex_Ext	L4_L5_Lat_Bending	L4_L5_axial_rotation	L3_L4_Flex_Ext	L3_L4_Lat_Bending	L3_L4_axial_rotation	L2_L3_Flex_Ext	L2_L3_Lat_Bending	L2_L3_axial_rotation	L1_L2_Flex_Ext	L1_L2_Lat_Bending	L1_L2_axial_rotation	L1_T12_Flex_Ext	L1_T12_Lat_Bending	L1_T12_axial_rotation	Abs_r3	Abs_r2	Abs_r1	Abs_t1	Abs_t2	neck_flexion	neck_bending	neck_rotation	arm_flex_r	arm_add_r	arm_rot_r	elbow_flex_r	pro_sup_r	wrist_flex_r	wrist_dev_r	arm_flex_l	arm_add_l	arm_rot_l	elbow_flex_l	pro_sup_l	wrist_flex_l	wrist_dev_l
      9.97727273	      6.21509740	     20.56522378	     78.62660408	      0.17783650	      1.15298620	      0.49476817	    -19.64879584	      1.48696355	      8.43304406	      5.83027841	      0.10175755	     11.92103557	     18.13190218	      0.00000000	    -23.53944686	     -2.51987595	    -18.60054971	      3.56299760	      0.06218604	      7.31969328	      2.36838526	      0.00000000	     -2.63182447	      0.59079448	      1.88806661	     -4.88756122	      0.78575666	      2.00607077	     -4.32382442	      1.43645770	      2.00607077	     -3.00791218	      1.43645770	      1.65205828	     -2.44391220	      1.20474810	      1.53405412	     -1.50382450	      0.91514065	      1.41604996	    -18.79885899	      6.68318532	     10.50086006	      0.00000000	      0.00000000	     -8.73332270	     11.54345244	    -21.36386539	     87.03991652	      0.13250209	    150.58239017	      0.05516649	      8.74991867	    -69.88863213	     34.86855196	     87.17581844	     38.05540016	    192.74545554	      0.03194332	      1.02526118	    -69.94579541	    -24.76610864
     10.00000000	      6.26248299	     20.50508183	     78.51772158	      0.17808976	      1.15290182	      0.49391736	    -19.61087772	      1.51805778	      8.46984536	      5.89318958	      0.10285556	     11.90971356	     18.15520120	      0.00000000	    -23.60207908	     -2.53663095	    -18.55786111	      3.53866198	      0.06176130	      7.50855746	      2.32943308	      0.00000000	     -2.61320098	      0.59895835	      1.85868328	     -4.85297554	      0.79661461	      1.97485099	     -4.29322789	      1.45630734	      1.97485099	     -2.98662740	      1.45630734	      1.62634787	     -2.42661843	      1.22139587	      1.51018017	     -1.49318304	      0.92778649	      1.39401246	    -18.66583329	      6.77553669	     10.33743881	      0.00000000	      0.00000000	     -8.51900534	     11.55042549	    -21.38651152	     86.86808758	      0.26339428	    150.42079492	      0.05534518	      8.62564800	    -69.88874407	     34.87187115	     87.11705134	     37.72606059	    192.79214921	      0.03203651	      1.05673316	    -69.94573565	    -24.76686026
     10.02272727	      5.84387454	     21.03449478	     79.07186325	      0.17935251	      1.15286440	      0.49654356	    -19.85597298	      1.31897104	      7.80485481	      6.18253246	      0.10790555	     12.05984282	     18.17064347	      0.00000000	    -23.70768561	     -2.42419282	    -17.47597307	      3.98719300	      0.06958965	      7.69626370	      1.69542956	      0.00000000	     -2.66382270	      0.56410117	      1.45581811	     -4.94698513	      0.75025456	      1.54680674	     -4.37639431	      1.37155558	      1.54680674	     -3.04448296	      1.37155558	      1.27384084	     -2.47362576	      1.15031511	      1.18285221	     -1.52210829	      0.87379271	      1.09186358	    -19.02741915	      6.38122526	      8.09682356	      0.00000000	      0.00000000	     -9.18546981	     11.05318390	    -18.46408804	     86.52010527	      3.46497214	    153.67385601	      0.05231365	      8.22990664	    -69.90403697	     34.86567824	     87.16412781	     35.69120573	    192.26901410	      0.03185307	      0.98744105	    -69.94607599	    -24.76584846
     10.04545455	      4.83491578	     22.13506919	     79.69444910	      0.18279787	      1.15316863	      0.50170724	    -20.44603533	      0.56691097	      7.04743715	      6.58231477	      0.11488307	     12.35901757	     18.21780507	      0.00000000	    -24.12727253	     -1.78981644	    -16.51904909	      4.51875648	      0.07886718	      7.47391758	      1.29838161	      0.00000000	     -2.78661176	      0.46845941	      0.98945861	     -5.17501670	      0.62305101	      1.05129977	     -4.57812446	      1.13901220	      1.05129977	     -3.18481858	      1.13901220	      0.86577628	     -2.58764768	      0.95528242	      0.80393512	     -1.59226996	      0.72564362	      0.74209396	    -19.90448915	      5.29930649	      5.50307195	      0.00000000	      0.00000000	    -10.36071113	      9.71331138	    -14.43343597	     85.98361196	      8.19276623	    161.02439634	      0.04757435	      7.59375686	    -69.92112098	     34.85391533	     87.25807394	     32.80065982	    191.35049282	      0.03150403	      0.92265646	    -69.94672396	    -24.76676458
     10.06818182	      3.16664330	     23.33127501	     80.88046937	      0.18828883	      1.15373931	      0.50788602	    -21.06526808	     -0.52303774	      5.83841359	      6.97474139	      0.12173220	     12.71742595	     18.15106394	      0.00000000	    -24.39996088	     -0.88873733	    -15.70053211	      5.16080300	      0.09007300	      6.99475779	      1.73601046	      0.00000000	     -2.90497985	      0.31948091	      0.56012937	     -5.39483809	      0.42490961	      0.59513745	     -4.77259140	      0.77678588	      0.59513745	     -3.32010148	      0.77678588	      0.49011320	     -2.69756429	      0.65148547	      0.45510511	     -1.65990549	      0.49487593	      0.42009703	    -20.74998060	      3.61403192	      3.11527150	      0.00000000	      0.00000000	    -11.53868881	      8.32227292	    -10.35506021	     85.11128399	     13.20764006	    169.30838137	      0.04328437	      6.74743568	    -69.93390621	     34.84031414	     87.26462315	     29.94344590	    191.00448914	      0.03097175	      0.85916663	    -69.94764750	    -24.76788667
     10.09090909	      0.90965103	     24.34128840	     82.43023295	      0.19595973	      1.15448715	      0.51403202	    -21.51113362	     -1.91883361	      4.49495213	      7.37619506	      0.12873889	     13.19669845	     18.04301087	      0.00000000	    -24.43100316	      0.27216285	    -15.11555951	      5.78849643	      0.10102832	      6.20495489	      2.88423390	      0.00000000	     -2.98502512	      0.12822177	      0.26232898	     -5.54349015	      0.17053495	      0.27872454	     -4.90409777	      0.31175841	      0.27872454	     -3.41158521	      0.31175841	      0.22953786	     -2.77189433	      0.26146983	      0.21314230	     -1.70564335	      0.19861552	      0.19674674	    -21.32173594	      1.45047031	      1.45899509	      0.00000000	      0.00000000	    -12.64974307	      6.89053051	     -7.01385710	     83.87180722	     18.06684642	    178.04272678	      0.03985163	      5.08763051	    -69.94286806	     34.83156495	     87.15318625	     27.49634184	    191.42922597	      0.03032665	      0.81316421	    -69.94888634	    -24.77037914
     10.11363636	     -1.77875490	     24.96460679	     84.43603192	      0.20525951	      1.15524529	      0.51922037	    -21.77598882	     -3.42736949	      2.87633254	      7.61434098	      0.13289532	     13.66684410	     17.77304503	      0.00000000	    -24.14341763	      1.51426409	    -14.75243275	      6.36489273	      0.11108833	      5.34288049	      4.81854134	      0.00000000	     -3.01117881	     -0.08027801	      0.08544888	     -5.59206017	     -0.10676975	      0.09078943	     -4.94706567	     -0.19518794	      0.09078943	     -3.44147626	     -0.19518794	      0.07476777	     -2.79618064	     -0.16370291	      0.06942721	     -1.72058757	     -0.12435063	      0.06408666	    -21.50854912	     -0.90812086	      0.47524101	      0.00000000	      0.00000000	    -13.61592214	      5.63260617	     -4.40978472	     82.27602161	     22.60029540	    186.28192869	      0.03702548	      3.86824194	    -69.94912882	     34.83106040	     86.93258727	     25.58011314	    192.32704637	      0.02963585	      0.78096084	    -69.95030371	    -24.77523179
     10.13636364	     -4.39736517	     25.08763954	     86.60064279	      0.21453124	      1.15592445	      0.52227059	    -21.87163369	     -4.74120118	      1.37698776	      7.63990263	      0.13334146	     14.05943524	     17.28165667	      0.00000000	    -23.60503195	      2.59337872	    -14.36144680	      6.82058388	      0.11904165	      4.44345313	      6.85684534	      0.00000000	     -2.98467226	     -0.26933080	      0.00439126	     -5.54283486	     -0.35820996	      0.00466571	     -4.90351806	     -0.65485090	      0.00466571	     -3.41118193	     -0.65485090	      0.00384235	     -2.77156666	     -0.54921936	      0.00356790	     -1.70544173	     -0.41719340	      0.00329344	    -21.31921550	     -3.04672384	      0.02442285	      0.00000000	      0.00000000	    -14.39988621	      4.73417628	     -2.60631682	     80.50377265	     26.30946508	    193.58200649	      0.03480969	      3.56927336	    -69.95329672	     34.83748357	     86.65694412	     24.34287485	    193.53890734	      0.02901494	      0.74016939	    -69.95151772	    -24.77878573
